<svg width="567" height="240" viewBox="0 0 567 240" fill="none" xmlns="http://www.w3.org/2000/svg">
<path d="M8.32 59.84H43.04C53.0667 59.84 58.08 64.5333 58.08 73.92V99.36C58.08 105.013 55.9467 108.32 51.68 109.28C55.9467 110.347 58.08 113.44 58.08 118.56V145.92C58.08 155.307 53.0667 160 43.04 160H8.32V59.84ZM43.52 144V119.36C43.52 117.44 43.2 116.213 42.56 115.68C41.92 115.04 40.64 114.72 38.72 114.72H22.72V148.64H38.72C40.64 148.64 41.92 148.373 42.56 147.84C43.2 147.2 43.52 145.92 43.52 144ZM43.52 98.72V75.84C43.52 73.92 43.2 72.6933 42.56 72.16C41.92 71.52 40.64 71.2 38.72 71.2H22.72V103.36H38.72C40.64 103.36 41.92 103.093 42.56 102.56C43.2 101.92 43.52 100.64 43.52 98.72Z" fill="black"/>
<path d="M204 59.84H217.28V160H202.72L181.6 87.68V160H168.32V59.84H183.52L204 130.08V59.84ZM269.465 144V75.84C269.465 73.92 269.145 72.6933 268.505 72.16C267.865 71.52 266.585 71.2 264.665 71.2H248.825V148.64H264.665C266.585 148.64 267.865 148.373 268.505 147.84C269.145 147.2 269.465 145.92 269.465 144ZM234.265 59.84H269.145C279.065 59.84 284.025 64.5333 284.025 73.92V145.92C284.025 155.307 279.065 160 269.145 160H234.265V59.84ZM314.283 148.32H339.083V160H299.883V59.84H314.283V148.32Z" fill="black"/>
<path d="M128.694 71.8489L114 91.6342L99.3061 71.8489L104.204 64.0122H123.82L128.694 71.8489Z" fill="#45A5F9"/>
<path d="M114.007 43.6367V51.7037V43.6367ZM135.164 52.3967L129.456 58.1004L135.164 52.3967ZM143.927 73.5412H135.855H143.927ZM92.16 73.5412H84.0906H92.16ZM98.5592 58.1004L92.8531 52.3967L98.5592 58.1004Z" fill="white"/>
<path d="M114 157.588C135.673 157.588 153.306 139.955 153.306 118.282C153.306 100.416 141.054 84.7674 123.931 80.3225L129.678 72.5887L129.683 72.5764C129.803 72.3897 129.875 72.1765 129.894 71.9555C129.913 71.7344 129.878 71.5121 129.791 71.3078C129.784 71.2931 129.767 71.2882 129.759 71.2735C129.749 71.254 129.749 71.2295 129.735 71.2099L124.854 63.3658C124.744 63.1897 124.591 63.0445 124.409 62.9438C124.227 62.8431 124.023 62.7903 123.816 62.7903H104.199C103.992 62.7903 103.787 62.8431 103.606 62.9438C103.424 63.0445 103.271 63.1897 103.161 63.3658C97.6506 72.2189 98.3265 71.1291 98.2237 71.3078C98.1356 71.5118 98.0994 71.7343 98.1182 71.9557C98.137 72.177 98.2103 72.3902 98.3314 72.5764C98.3339 72.5813 98.3314 72.5838 98.3363 72.5887L104.082 80.3201C86.9535 84.7674 74.6939 100.416 74.6939 118.279C74.6939 139.953 92.3265 157.588 114 157.588ZM120.862 80.347L120.85 80.3642L118.494 83.5356L122.591 73.0833H126.262L120.862 80.347ZM115.232 73.0833H119.961L115.234 85.147L115.232 73.0833ZM115.232 70.6344V65.2417H118.293L120.066 70.6344H115.232ZM112.783 65.2417V70.6344H107.951L109.722 65.2417H112.783ZM112.783 73.0833V85.147L108.056 73.0833H112.783ZM126.492 70.6344H122.642L120.869 65.2393H123.135L126.492 70.6344ZM104.882 65.2393H107.145L105.372 70.6344H101.522L104.882 65.2393ZM105.424 73.0833L109.521 83.5356L101.755 73.0858H105.424V73.0833ZM105.659 82.4409L108.279 85.9674C102.693 86.9428 97.4559 89.3528 93.0812 92.9611C88.7066 96.5694 85.3444 101.252 83.3241 106.551C83.2072 106.854 83.2154 107.191 83.347 107.488C83.4786 107.785 83.7227 108.017 84.0257 108.134C84.3287 108.251 84.6657 108.243 84.9627 108.111C85.2596 107.98 85.4921 107.736 85.609 107.433C87.5547 102.332 90.8426 97.8525 95.1251 94.4671C99.4075 91.0818 104.525 88.9167 109.937 88.2009L113.023 92.3544C113.04 92.374 113.067 92.3838 113.082 92.4033C114.686 94.3111 116.373 90.0278 118.07 88.2107C121.749 88.7078 125.251 89.827 128.476 91.5829C128.617 91.6673 128.774 91.7222 128.938 91.7445C129.101 91.7668 129.267 91.7559 129.426 91.7125C129.585 91.6691 129.733 91.5941 129.862 91.492C129.991 91.3899 130.099 91.2627 130.178 91.1182C130.257 90.9737 130.306 90.8147 130.322 90.6508C130.338 90.4868 130.321 90.3214 130.271 90.1642C130.222 90.0071 130.141 89.8616 130.034 89.7363C129.928 89.611 129.796 89.5086 129.649 89.4352C126.548 87.7545 123.192 86.593 119.716 85.9968L122.356 82.4458C138.911 86.2638 150.857 101.198 150.857 118.282C150.857 138.606 134.322 155.139 114 155.139C93.6759 155.139 77.1429 138.606 77.1429 118.282C77.1429 101.198 89.0939 86.2613 105.659 82.4409Z" fill="url(#paint0_linear_8_403)"/>
<path d="M114.007 151.127C114.332 151.127 114.644 150.998 114.873 150.769C115.103 150.539 115.232 150.228 115.232 149.903C115.232 149.578 115.103 149.267 114.873 149.037C114.644 148.807 114.332 148.678 114.007 148.678C97.2441 148.678 83.6057 135.047 83.6057 118.292C83.6057 117.967 83.4767 117.655 83.2471 117.426C83.0174 117.196 82.706 117.067 82.3812 117.067C82.0565 117.067 81.745 117.196 81.5154 117.426C81.2857 117.655 81.1567 117.967 81.1567 118.292C81.1567 136.397 95.8923 151.127 114.007 151.127ZM124.918 149.266C138.044 144.635 146.86 132.187 146.86 118.292C146.86 109.931 143.701 101.957 137.971 95.8515C137.747 95.6237 137.442 95.4924 137.123 95.4857C136.804 95.4791 136.494 95.5975 136.261 95.8158C136.028 96.0341 135.889 96.335 135.874 96.6541C135.86 96.9733 135.97 97.2855 136.183 97.5242C141.475 103.143 144.419 110.573 144.411 118.292C144.411 131.149 136.249 142.671 124.102 146.957C123.796 147.065 123.545 147.29 123.405 147.583C123.265 147.876 123.247 148.213 123.355 148.519C123.463 148.826 123.689 149.076 123.982 149.216C124.275 149.356 124.611 149.374 124.918 149.266ZM112.783 43.6368V51.7062C112.783 52.031 112.912 52.3424 113.142 52.5721C113.371 52.8017 113.683 52.9307 114.007 52.9307C114.332 52.9307 114.644 52.8017 114.873 52.5721C115.103 52.3424 115.232 52.031 115.232 51.7062V43.6368C115.232 43.3121 115.103 43.0006 114.873 42.771C114.644 42.5414 114.332 42.4124 114.007 42.4124C113.683 42.4124 113.371 42.5414 113.142 42.771C112.912 43.0006 112.783 43.3121 112.783 43.6368ZM136.029 51.5299C135.799 51.3003 135.488 51.1714 135.163 51.1714C134.838 51.1714 134.527 51.3003 134.297 51.5299L128.591 57.236C128.47 57.3479 128.372 57.4832 128.304 57.6337C128.237 57.7842 128.2 57.9469 128.197 58.1119C128.193 58.2769 128.223 58.4409 128.285 58.5941C128.347 58.7472 128.439 58.8862 128.556 59.0029C128.672 59.1195 128.812 59.2113 128.965 59.2728C129.118 59.3343 129.282 59.3641 129.447 59.3606C129.612 59.3571 129.775 59.3202 129.925 59.2522C130.076 59.1842 130.211 59.0865 130.322 58.965L136.029 53.2613C136.258 53.0317 136.387 52.7203 136.387 52.3956C136.387 52.0709 136.258 51.7595 136.029 51.5299ZM135.857 74.7634H143.927C144.251 74.7634 144.563 74.6344 144.792 74.4047C145.022 74.1751 145.151 73.8636 145.151 73.5389C145.151 73.2141 145.022 72.9027 144.792 72.673C144.563 72.4434 144.251 72.3144 143.927 72.3144H135.857C135.532 72.3144 135.221 72.4434 134.991 72.673C134.762 72.9027 134.633 73.2141 134.633 73.5389C134.633 73.8636 134.762 74.1751 134.991 74.4047C135.221 74.6344 135.532 74.7634 135.857 74.7634ZM84.0906 72.3144C83.7659 72.3144 83.4544 72.4434 83.2248 72.673C82.9951 72.9027 82.8661 73.2141 82.8661 73.5389C82.8661 73.8636 82.9951 74.1751 83.2248 74.4047C83.4544 74.6344 83.7659 74.7634 84.0906 74.7634H92.16C92.4848 74.7634 92.7962 74.6344 93.0259 74.4047C93.2555 74.1751 93.3845 73.8636 93.3845 73.5389C93.3845 73.2141 93.2555 72.9027 93.0259 72.673C92.7962 72.4434 92.4848 72.3144 92.16 72.3144H84.0906ZM91.9861 51.5299C91.7566 51.7595 91.6276 52.0709 91.6276 52.3956C91.6276 52.7203 91.7566 53.0317 91.9861 53.2613L97.6922 58.9675C97.8061 59.0813 97.9413 59.1716 98.09 59.2332C98.2388 59.2948 98.3982 59.3266 98.5592 59.3266C98.7202 59.3266 98.8796 59.2948 99.0284 59.2332C99.1771 59.1716 99.3123 59.0813 99.4261 58.9675C99.54 58.8536 99.6303 58.7185 99.6919 58.5697C99.7535 58.421 99.7852 58.2615 99.7852 58.1005C99.7852 57.9395 99.7535 57.7801 99.6919 57.6313C99.6303 57.4826 99.54 57.3474 99.4261 57.2336L93.72 51.5299C93.6063 51.4159 93.4711 51.3254 93.3224 51.2637C93.1736 51.2019 93.0141 51.1702 92.8531 51.1702C92.692 51.1702 92.5325 51.2019 92.3838 51.2637C92.235 51.3254 92.0999 51.4159 91.9861 51.5299Z" fill="url(#paint1_linear_8_403)"/>
<path d="M499.4 91.2H484.68V75.84C484.68 73.92 484.36 72.6933 483.72 72.16C483.187 71.52 481.96 71.2 480.04 71.2H471.88C469.96 71.2 468.68 71.52 468.04 72.16C467.4 72.6933 467.08 73.92 467.08 75.84V144.16C467.08 146.08 467.4 147.36 468.04 148C468.68 148.533 469.96 148.8 471.88 148.8H480.04C481.96 148.8 483.187 148.533 483.72 148C484.36 147.36 484.68 146.08 484.68 144.16V128.96H499.4V145.92C499.4 155.413 494.387 160.16 484.36 160.16H467.4C457.48 160.16 452.52 155.413 452.52 145.92V73.92C452.52 64.5333 457.48 59.84 467.4 59.84H484.36C494.387 59.84 499.4 64.5333 499.4 73.92V91.2ZM513.633 160V59.84H528.033V160H513.633ZM565.153 59.84L544.033 110.08L564.993 160H549.313L528.993 110.08L549.633 59.84H565.153Z" fill="black"/>
<path d="M439.722 104.375C434.826 96.5273 427.229 92.4467 419.445 91.8817C424.53 85.9806 426.978 77.7567 424.907 68.8423C415.929 66.7706 407.643 69.2189 401.804 74.3667C401.177 66.6451 397.096 59.0489 389.312 54.2778C381.527 59.1117 377.447 66.7078 376.882 74.4923C370.981 69.4073 362.757 66.9589 353.842 69.0934C351.771 78.0078 354.219 86.2945 359.367 92.1956C351.582 92.7606 344.049 96.8412 339.278 104.626C344.112 112.41 351.708 116.553 359.492 117.056C354.407 122.957 351.959 131.181 354.031 140.095C363.008 142.167 371.294 139.718 377.133 134.571C377.761 142.355 381.841 149.888 389.626 154.722C397.41 149.888 401.491 142.23 402.056 134.445C407.957 139.53 416.181 141.978 425.095 139.907C427.167 130.992 424.718 122.706 419.571 116.805C427.355 116.24 434.888 112.096 439.722 104.375ZM389.626 129.611C375.752 129.611 364.514 118.374 364.514 104.5C364.514 90.6262 375.752 79.3889 389.626 79.3889C403.499 79.3889 414.737 90.6262 414.737 104.5C414.737 118.374 403.499 129.611 389.626 129.611Z" fill="url(#paint2_linear_8_403)"/>
<path d="M389.626 85.6667C379.204 85.6667 370.792 94.079 370.792 104.5C370.792 114.858 379.204 123.333 389.626 123.333C399.984 123.333 408.459 114.858 408.459 104.5C408.459 94.079 399.984 85.6667 389.626 85.6667ZM389.626 117.056C386.296 117.056 383.102 115.733 380.747 113.378C378.393 111.024 377.07 107.83 377.07 104.5C377.07 97.5317 382.657 91.9445 389.626 91.9445C392.955 91.9445 396.149 93.2673 398.504 95.622C400.858 97.9766 402.181 101.17 402.181 104.5C402.181 107.83 400.858 111.024 398.504 113.378C396.149 115.733 392.955 117.056 389.626 117.056Z" fill="url(#paint3_linear_8_403)"/>
<defs>
<linearGradient id="paint0_linear_8_403" x1="74.6939" y1="110.503" x2="153.306" y2="110.503" gradientUnits="userSpaceOnUse">
<stop stop-color="#841BD7"/>
<stop offset="0.504348" stop-color="#1324C0"/>
<stop offset="1" stop-color="#0F0BAA"/>
</linearGradient>
<linearGradient id="paint1_linear_8_403" x1="81.1567" y1="97.1299" x2="146.86" y2="97.1299" gradientUnits="userSpaceOnUse">
<stop stop-color="#841BD7"/>
<stop offset="0.504348" stop-color="#1324C0"/>
<stop offset="1" stop-color="#0F0BAA"/>
</linearGradient>
<linearGradient id="paint2_linear_8_403" x1="339.278" y1="104.833" x2="439.722" y2="104.833" gradientUnits="userSpaceOnUse">
<stop stop-color="#841BD7"/>
<stop offset="0.504348" stop-color="#1324C0"/>
<stop offset="1" stop-color="#0F0BAA"/>
</linearGradient>
<linearGradient id="paint3_linear_8_403" x1="370.792" y1="104.625" x2="408.459" y2="104.625" gradientUnits="userSpaceOnUse">
<stop stop-color="#841BD7"/>
<stop offset="0.504348" stop-color="#1324C0"/>
<stop offset="1" stop-color="#0F0BAA"/>
</linearGradient>
</defs>
</svg>
